<?xml version="1.0" encoding="UTF-8"?>
<!-- Generator: Adobe Illustrator 22.0.1, SVG Export Plug-In . SVG Version: 6.00 Build 0)  -->
<svg version="1.1" id="Layer_1" xmlns="http://www.w3.org/2000/svg" xmlns:xlink="http://www.w3.org/1999/xlink" x="0px" y="0px" viewBox="0 0 21.6 22" style="enable-background:new 0 0 21.6 22;" xml:space="preserve">
<style type="text/css">
	.st0{fill:#403E40;}
	.st1{fill:#B6CFBF;}
</style>
<g>
	<g>
		<path class="st0" d="M3.4,21.9H1.2v-4.3h2.1c1,0,1.5,0.4,1.5,1.1c0,0.4-0.2,0.7-0.6,0.9c0.5,0.2,0.7,0.6,0.7,1    C5,21.4,4.4,21.9,3.4,21.9z M3.2,18.5H2.3v0.8h1c0.3,0,0.5-0.1,0.5-0.4S3.6,18.5,3.2,18.5z M3.4,20.1H2.3V21h1.1    c0.3,0,0.5-0.2,0.5-0.5C3.9,20.3,3.7,20.1,3.4,20.1z"/>
		<path class="st0" d="M8.8,18.4v3.5h-1v-0.4c-0.3,0.3-0.6,0.5-1,0.5c-0.8,0-1.2-0.5-1.2-1.3v-2.3h1v2.1c0,0.3,0.1,0.6,0.5,0.6    c0.4,0,0.7-0.2,0.7-0.7v-2H8.8z"/>
		<path class="st0" d="M11.7,18c-0.1,0-0.2-0.1-0.4-0.1c-0.3,0-0.4,0.1-0.4,0.3v0.2h0.7v0.8h-0.7v2.7h-1v-2.7H9.4v-0.8h0.5v-0.1    c0-0.6,0.4-1.1,1.3-1.1c0.2,0,0.4,0,0.6,0.1L11.7,18z"/>
		<path class="st0" d="M14.5,21.9v-0.4c-0.3,0.3-0.6,0.5-1.1,0.5c-1,0-1.6-0.8-1.6-1.8c0-1,0.6-1.8,1.6-1.8c0.4,0,0.8,0.2,1.1,0.5    v-1.6h1v4.7H14.5z M13.7,19.2c-0.5,0-0.8,0.4-0.8,1c0,0.5,0.3,1,0.8,1c0.5,0,0.8-0.4,0.8-1C14.5,19.7,14.3,19.2,13.7,19.2z"/>
		<path class="st0" d="M16.5,18v-0.7h1V18H16.5z M16.5,21.9v-3.5h1v3.5H16.5z"/>
		<path class="st0" d="M20.5,19.5c-0.1-0.1-0.2-0.1-0.4-0.1c-0.4,0-0.7,0.3-0.7,0.9v1.7h-1v-3.5h1V19c0.2-0.4,0.6-0.6,0.9-0.6    c0.2,0,0.4,0,0.4,0.1L20.5,19.5z"/>
	</g>
	<g>
		<path class="st1" d="M16,5.6c-0.3-0.4-0.3-1,0.1-1.3c0.4-0.3,1-0.2,1.3,0.2c0.3,0.4,0.3,0.9-0.1,1.2C17,6,16.4,6,16,5.6"/>
		<path class="st1" d="M14.6,4.1c0,0-4.2-2.5-6.2-3C3.8,0.1,0.9,2.6,0.1,6.8c-0.7,4.2,1.4,7.3,5.6,8c4.2,0.7,6.7-1.2,7.7-2.8    c0.5-0.7,0.7-1.9,0.5-3.4C13.7,7,13.8,6.6,14.6,4.1z M11.1,5.9c-0.5,0.2-1-0.1-1.1-0.6c-0.1-0.5,0.1-1,0.6-1.1    c0.5-0.1,1,0.2,1.1,0.7C11.8,5.2,11.6,5.7,11.1,5.9z"/>
		<path class="st1" d="M21.6,3.3c0,0-0.7-0.4-2.8-1.5c-1.1-0.6-2.8-1.3-3.9-1.5C12.7-0.3,10.7,0,9.2,1C9.1,1.1,9,1.2,8.8,1.3l0,0    c-2.1,1.6-2.5,4.1-2.7,5C5.9,7.2,5.9,8,6,8.7c0.1,0.7,0.2,1.4,0.5,2c0.2,0.4,0.3,0.8,0.5,0.9c0.2,0.2,0.3,0.5,0.5,0.7    c1.1,1.3,2.6,2.1,4.6,2.5c4.2,0.7,6.9-1.1,8.1-3c0.6-1,0.7-2.1,0.6-3.6c-0.2-1.7,0-2.4,0.6-4L21.6,3.3z M19.5,7.2    c0,0.4,0.1,1.8,0.2,2.2c0,0.5-0.2,1.3-0.5,1.8c-1,1.6-3.3,3.1-6.9,2.5c-0.2,0-0.4-0.1-0.6-0.1c-0.3-0.1-0.7-0.2-1-0.3    c-1.1-0.4-1.9-1.1-2.5-1.9C7.3,10,7,8.3,7.3,6.4c0.2-0.9,0.4-1.8,0.8-2.5c0.4-0.7,0.8-1.2,1.2-1.5C9.5,2.3,9.7,2.1,9.8,2    c1.3-0.8,2.9-1,4.8-0.6c1.5,0.4,4.4,2,5.5,2.6C19.6,5.4,19.5,6.3,19.5,7.2z"/>
	</g>
</g>
</svg>